<?xml version="1.0" encoding="UTF-8"?>
<svg id="Layer_1" data-name="Layer 1" xmlns="http://www.w3.org/2000/svg" viewBox="0 0 80 80">
  <defs>
    <style>
      .cls-1 {
        fill: none;
        stroke: #006fa9;
        stroke-linecap: round;
        stroke-linejoin: round;
        stroke-width: 1.5px;
      }
    </style>
  </defs>
  <g>
    <polygon class="cls-1" points="9.68 21.36 14.01 22.63 18.25 21.36 13.96 20.11 9.68 21.36"/>
    <polyline class="cls-1" points="18.25 21.36 18.25 27.08 14.01 28.88 9.68 27.08 9.68 21.36"/>
    <line class="cls-1" x1="14.01" y1="22.63" x2="14.01" y2="28.88"/>
  </g>
  <g>
    <polygon class="cls-1" points="9.68 55.24 14.01 56.52 18.25 55.24 13.96 53.99 9.68 55.24"/>
    <polyline class="cls-1" points="18.25 55.24 18.25 60.97 14.01 62.77 9.68 60.97 9.68 55.24"/>
    <line class="cls-1" x1="14.01" y1="56.52" x2="14.01" y2="62.77"/>
  </g>
  <g>
    <polygon class="cls-1" points="61.4 55.24 65.74 56.52 69.98 55.24 65.68 53.99 61.4 55.24"/>
    <polyline class="cls-1" points="69.98 55.24 69.98 60.97 65.74 62.77 61.4 60.97 61.4 55.24"/>
    <line class="cls-1" x1="65.74" y1="56.52" x2="65.74" y2="62.77"/>
  </g>
  <g>
    <polygon class="cls-1" points="61.4 21.36 65.74 22.63 69.98 21.36 65.68 20.11 61.4 21.36"/>
    <polyline class="cls-1" points="69.98 21.36 69.98 27.08 65.74 28.88 61.4 27.08 61.4 21.36"/>
    <line class="cls-1" x1="65.74" y1="22.63" x2="65.74" y2="28.88"/>
  </g>
  <g>
    <path class="cls-1" d="m11.66,50.45c.36-3.09,1.85-6.51,4.28-9.94,2.14-3.02,5.02-6.06,8.48-8.88,2.21-1.8,4.65-3.51,7.31-5.08,2.75-1.63,5.54-3,8.27-4.09,4.22-1.69,8.33-2.73,12.05-3.1,2.56-.26,4.93-.21,7.04.16"/>
    <path class="cls-1" d="m68,32.43c-.64,2.58-1.99,5.32-3.94,8.08-2.14,3.02-5.02,6.06-8.48,8.88-2.21,1.8-4.65,3.51-7.31,5.08-2.75,1.63-5.54,3-8.27,4.09-4.22,1.69-8.33,2.73-12.05,3.1h0c-2.26.23-4.38.21-6.3-.05"/>
    <path class="cls-1" d="m20.6,19.58c2.18-.42,4.66-.49,7.35-.22,3.72.38,7.83,1.42,12.05,3.1,2.74,1.09,5.52,2.46,8.27,4.09,2.65,1.57,5.1,3.29,7.31,5.08,3.46,2.82,6.33,5.85,8.48,8.88,2.46,3.47,3.96,6.93,4.29,10.05"/>
    <path class="cls-1" d="m58.1,61.65c-1.85.23-3.88.23-6.05.02h0c-3.73-.38-7.83-1.42-12.05-3.1-2.74-1.09-5.52-2.46-8.27-4.09-2.65-1.57-5.1-3.29-7.31-5.08-3.46-2.82-6.33-5.86-8.48-8.88-1.93-2.72-3.27-5.43-3.92-7.98"/>
    <ellipse class="cls-1" cx="40" cy="40.51" rx="16.23" ry="31.6"/>
    <g>
      <polyline class="cls-1" points="37.87 34.95 32.09 34.95 32.09 39.93 37.62 39.93 37.62 45 31.77 45"/>
      <path class="cls-1" d="m47.86,35.76c-.78-.51-1.72-.8-2.73-.8-2.77,0-5.02,2.25-5.02,5.02s2.25,5.02,5.02,5.02,5.02-2.25,5.02-5.02h-4.38"/>
    </g>
  </g>
</svg>