<?xml version="1.0" encoding="UTF-8"?>
<svg id="Layer_1" data-name="Layer 1" xmlns="http://www.w3.org/2000/svg" viewBox="0 0 80 80">
  <defs>
    <style>
      .cls-1 {
        fill: none;
        stroke: #006fa9;
        stroke-linecap: round;
        stroke-linejoin: round;
        stroke-width: 1.5px;
      }
    </style>
  </defs>
  <polyline class="cls-1" points="19.06 27.36 19.06 15.22 46.53 15.22"/>
  <polyline class="cls-1" points="46.53 71.12 19.06 71.12 19.06 52"/>
  <g>
    <path class="cls-1" d="m38.93,36.64-3.4-3.06l1.13-2.44c.2-.43.11-.94-.23-1.28l-2.8-2.8c-.34-.34-.85-.43-1.28-.23l-2.44,1.13c-.68-.36-1.4-.65-2.13-.88l-.93-2.52c-.16-.45-.59-.74-1.06-.74h-3.96c-.47,0-.9.3-1.06.74l-.92,2.52c-.73.23-1.45.53-2.13.88l-2.44-1.13c-.43-.2-.94-.11-1.28.23l-2.8,2.8c-.34.34-.43.85-.23,1.28l1.13,2.44c-.36.68-.65,1.4-.88,2.13l-2.52.92c-.45.17-.74.59-.74,1.06v3.96c0,.47.3.9.74,1.06l2.52.93c.23.73.53,1.45.88,2.13l-1.13,2.44c-.2.43-.11.94.23,1.28l2.8,2.8c.33.33.85.43,1.28.23l2.44-1.13c.68.36,1.4.65,2.13.88l.92,2.52c.17.45.59.74,1.07.74h3.96c.47,0,.9-.3,1.06-.74l.93-2.52c.74-.23,1.45-.53,2.13-.88l2.44,1.13c.43.2.94.11,1.28-.23l2.8-2.8c.34-.34.43-.85.23-1.28l-1.13-2.44"/>
    <path class="cls-1" d="m30.28,46.36c-1.68,1.62-3.96,2.62-6.47,2.62-2.26,0-4.34-.81-5.95-2.16m.01-14.3c1.61-1.34,3.68-2.15,5.94-2.15,2.49,0,4.76.99,6.43,2.59"/>
  </g>
  <g>
    <line class="cls-1" x1="66.76" y1="11.36" x2="66.76" y2="6.92"/>
    <polyline class="cls-1" points="65.38 9.92 66.76 11.59 68.24 9.92"/>
  </g>
  <g>
    <line class="cls-1" x1="70.67" y1="7.15" x2="70.67" y2="11.59"/>
    <polyline class="cls-1" points="72.05 8.59 70.67 6.92 69.19 8.59"/>
  </g>
  <g>
    <rect class="cls-1" x="19.58" y="35.27" width="8.98" height="6.72" rx="1.95" ry="1.95"/>
    <line class="cls-1" x1="22.82" y1="42.12" x2="22.16" y2="44.09"/>
    <line class="cls-1" x1="25.84" y1="44.09" x2="25.19" y2="42.12"/>
    <line class="cls-1" x1="20.95" y1="44.79" x2="27.08" y2="44.79"/>
  </g>
  <g>
    <circle class="cls-1" cx="36.36" cy="39.68" r="2.94"/>
    <circle class="cls-1" cx="52.93" cy="30.11" r="2.94"/>
    <circle class="cls-1" cx="52.93" cy="49.25" r="2.94"/>
    <line class="cls-1" x1="50.34" y1="31.51" x2="38.86" y2="38.13"/>
    <line class="cls-1" x1="38.96" y1="41.05" x2="50.34" y2="47.85"/>
  </g>
  <g>
    <path class="cls-1" d="m61.9,11.35c-.53-.36-1.16-.56-1.85-.56-1.82,0-3.3,1.48-3.3,3.3s1.48,3.3,3.3,3.3,3.3-1.48,3.3-3.3h-2.26"/>
    <g id="g662">
      <path id="path664" class="cls-1" d="m54.49,15.44h-4.15s2.2-3.98,2.56-4.43c.37-.45.71-.17.75.23s-.02,6.15-.02,6.15"/>
    </g>
  </g>
  <g>
    <path class="cls-1" d="m50.14,71.89c.34.71,1.07,1.2,1.91,1.2,1.17,0,2.12-.95,2.12-2.12s-.95-2.12-2.12-2.12c-.56,0-1.06.21-1.44.56l.6-3.33h2.54"/>
    <path class="cls-1" d="m62.12,66.67c-.56-.38-1.23-.6-1.96-.6-1.94,0-3.51,1.57-3.51,3.51s1.57,3.51,3.51,3.51,3.51-1.57,3.51-3.51h-2.4"/>
  </g>
  <g>
    <path class="cls-1" d="m65.65,59.16c1.36.17,2.57.86,3.41,1.94s1.22,2.42,1.06,3.78"/>
    <path class="cls-1" d="m64.79,61.41c.92.12,1.75.59,2.32,1.32s.83,1.65.72,2.57"/>
    <path class="cls-1" d="m63.66,64c.49.06.93.31,1.24.7s.44.88.38,1.37"/>
  </g>
</svg>